<?xml version="1.0" encoding="utf-8"?>
<!-- Generator: Adobe Illustrator 22.1.0, SVG Export Plug-In . SVG Version: 6.00 Build 0)  -->
<svg version="1.1" id="Isolation_Mode" xmlns="http://www.w3.org/2000/svg" xmlns:xlink="http://www.w3.org/1999/xlink" x="0px"
	 y="0px" viewBox="0 0 85 85" style="enable-background:new 0 0 85 85;" xml:space="preserve">
<style type="text/css">
	._x005B_Default_x005D_{fill:#FFFFFF;stroke:#000000;stroke-miterlimit:10;}
	.st0{fill:#606C78;}
</style>
<g>
	<path class="st0" d="M20.5,39.2h-4v6.6h4V39.2z M76.3,50.7v-3.3c0-1.8-0.9-3.3-2.2-4.3c0.3-0.7,0.5-1.5,0.5-2.3v-3.3
		c0-2.9-2.4-5.3-5.3-5.3h-8.2c-2.9,0-5.3,2.4-5.3,5.3v3.3c0,1.8,0.9,3.3,2.2,4.3c-0.3,0.7-0.5,1.5-0.5,2.3v3.3
		c0,0.8,0.2,1.6,0.5,2.3c-1.3,1-2.2,2.5-2.2,4.3v3.3c0,0.6,0.1,1.1,0.3,1.6c-2.1,0.7-3.6,2.7-3.6,5v1.6c0,2.9,2.4,5.3,5.3,5.3h8.2
		c2.9,0,5.3-2.4,5.3-5.3v-1.6c0-0.6-0.1-1.1-0.3-1.6c2.1-0.7,3.6-2.7,3.6-5v-3.3c0-0.8-0.2-1.6-0.5-2.3C75.4,54,76.3,52.4,76.3,50.7
		z M59.9,37.6c0-0.7,0.6-1.3,1.3-1.3h8.2c0.7,0,1.3,0.6,1.3,1.3v3.3c0,0.7-0.6,1.3-1.3,1.3h-8.2c-0.7,0-1.3-0.6-1.3-1.3V37.6z
		 M67.4,68.7c0,0.7-0.6,1.3-1.3,1.3h-8.2c-0.7,0-1.3-0.6-1.3-1.3v-1.6c0-0.7,0.6-1.3,1.3-1.3h8.2c0.7,0,1.3,0.6,1.3,1.3V68.7z
		 M70.6,60.5c0,0.7-0.6,1.3-1.3,1.3h-8.2c-0.7,0-1.3-0.6-1.3-1.3v-3.3c0-0.7,0.6-1.3,1.3-1.3h8.2c0.7,0,1.3,0.6,1.3,1.3V60.5z
		 M72.3,50.7c0,0.7-0.6,1.3-1.3,1.3h-8.2c-0.7,0-1.3-0.6-1.3-1.3v-3.3c0-0.7,0.6-1.3,1.3-1.3H71c0.7,0,1.3,0.6,1.3,1.3V50.7z
		 M33.8,66.1c-1.3-1.2-2.8-2.5-5.1-2.7V39.6h3.8l7-7.9c3.7-4.2,7.2-9.2,7.2-17v-2.4c0-0.1,0-0.4,0.5-0.6c0.7-0.2,1.7,0,2.5,1
		c2,2.6,2.9,4.2,2.9,9.1c0,3.3-0.7,5.5-1.1,6.9C51.2,29.6,51,30.3,51,31v8.2c-0.1,7.3-4.7,13.6-11.5,16.2l1.4,3.7
		C49.3,56,54.8,48.2,55,39.2l0-8.2c0-0.2,0.2-0.7,0.3-1.1c0.5-1.6,1.3-4.2,1.3-8.1c0-5.8-1.1-8.3-3.7-11.6c-1.7-2.2-4.5-3.2-7-2.4
		c-2,0.7-3.2,2.3-3.2,4.3v2.4c0,5.4-1.7,9.3-6.2,14.4l-5.8,6.6h-2v-3.3H8.4v40.1h20.4v-4.9c0.7,0.1,1.3,0.6,2.3,1.6
		c1.5,1.4,3.6,3.3,7.2,3.3h13.1v-4H38.3C36.2,68.4,35.2,67.4,33.8,66.1z M24.7,68.4H12.4V36.3h12.4V68.4z"/>
</g>
</svg>
