<?xml version="1.0" encoding="utf-8"?>
<!-- Generator: Adobe Illustrator 22.1.0, SVG Export Plug-In . SVG Version: 6.00 Build 0)  -->
<svg version="1.1" id="Isolation_Mode" xmlns="http://www.w3.org/2000/svg" xmlns:xlink="http://www.w3.org/1999/xlink" x="0px"
	 y="0px" viewBox="0 0 85 85" style="enable-background:new 0 0 85 85;" xml:space="preserve">
<style type="text/css">
	._x005B_Default_x005D_{fill:#FFFFFF;stroke:#000000;stroke-miterlimit:10;}
	.st0{fill:#606C78;}
</style>
<path class="st0" d="M39.1,44l-7.8-7.8L23.5,44l7.8,7.8L39.1,44z M31.3,41.8l2.1,2.1l-2.1,2.1L29.2,44L31.3,41.8z M31.4,57.2
	l-7.8-7.8l-7.8,7.8l7.8,7.8L31.4,57.2z M23.6,55.1l2.1,2.1l-2.1,2.1l-2.1-2.1L23.6,55.1z M42.3,5.1l9.9,9.9L33.4,33.9l10.2,10.2
	l7.4-7.4l9.1,9.1l11.5-11.5l9.9,9.9V5.1H42.3z M77.4,34.6l-5.9-5.9L60.1,40.1L51,31.1l-7.4,7.4L39,33.9L57.9,15L52,9.1h25.4V34.6z
	 M41.7,48.4l7.9,7.9l7.9-7.9l-7.9-7.9L41.7,48.4z M49.6,50.6l-2.2-2.2l2.2-2.2l2.2,2.2L49.6,50.6z M20.4,71.1l7.8,7.8l7.8-7.8
	l-7.8-7.8L20.4,71.1z M28.2,73.2L26,71.1l2.1-2.1l2.1,2.1L28.2,73.2z M2.9,64.6l7.8,7.8l7.8-7.8l-7.8-7.8L2.9,64.6z M10.6,66.7
	l-2.1-2.1l2.1-2.1l2.1,2.1L10.6,66.7z M32.3,58l7.8,7.8l7.8-7.8l-7.8-7.8L32.3,58z M40.1,60.2L37.9,58l2.1-2.1l2.1,2.1L40.1,60.2z"
	/>
</svg>
