<svg id="图层_1" xmlns="http://www.w3.org/2000/svg" viewBox="0 0 180 140"><style>.st0{fill:#AD1A31;} .st1{fill:#FFFFFF;} .st2{fill:#231815;}</style><g id="Advance"><path class="st0" d="M49.1 50.3h4.7l1.1 14.1h-4.6v-2.3H45l-1.6 2.3h-4.7l10.4-14.1zm1.1 9l-.1-4.7-3.2 4.7h3.3zM64.1 64.4h-5.7c-2.7 0-3.8-2.2-2.8-5.5s3.5-5.6 6.1-5.6c.7 0 1.4.1 2.1.5l1.1-3.5h3.8l-4.6 14.1zm-1.5-7.3c-.4-.1-.8-.2-1.2-.2-1 0-1.9.8-2.3 2.1-.3 1.2.2 2 1.3 2 .3 0 .5-.1 1-.2l1.2-3.7zM67.7 53.5h4l-.4 5.8 3.9-5.8h3.4L71 64.4h-3.1l-.2-10.9zM83.7 64.6c-1.9.1-2.8-.1-3.1-1-1.1.7-1.9 1.1-3.1 1.1-2.1 0-2.6-1.3-2.2-2.7.2-.7.7-1.3 1.3-1.9 1.4-1.2 4-1.3 5.3-2.2.3-1 0-1.6-1.1-1.3-1.3.3-2 .7-4 1.9l1-3.2c1.8-1.1 3.2-1.7 5-1.9 2.2-.2 4 1 3.1 3.8l-1 3.1c-.3 1.1-.4 1.4.7 1.4l-1.9 2.9zM81.3 60c-1 .6-2.2.5-2.5 1.7-.2.6 0 1 .5 1s.8-.2 1.4-.6c0-.2.1-.4.2-.8l.4-1.3zM88.7 53.5h3.8l-.5 1.4c1.4-1.2 2.4-1.6 3.6-1.6 2.1 0 2.8 1.5 2 3.9l-2.3 7.2h-3.8l1.9-6c.3-1.1.2-1.6-.6-1.6-.6 0-1.2.4-1.9 1.2l-2 6.4h-3.8l3.6-10.9zM104.4 63.9c-1.4.5-2.2.7-3.3.7-3.2 0-4.7-2.3-3.6-5.6.9-2.7 3.4-5.7 7.2-5.7 1 0 2.1.2 2.9.6l-1.2 3.6c-.7-.4-1.4-.6-2.2-.6-1.3 0-2.5.9-2.9 2.1-.4 1.2.3 2.1 1.7 2.1.7 0 1.4-.2 2.6-.7l-1.2 3.5zM115.1 62.8c-1.6 1.4-3 1.8-4.9 1.8-3.3 0-4.6-2.5-3.6-5.7 1-3.2 3.9-5.6 6.8-5.6s4.2 2.5 2.8 6.2H110c-.3 1.1.3 2.2 1.8 2.2 1 0 2.6-.4 4.1-1.3l-.8 2.4zm-1.9-4.9c.4-1.4.2-2.1-.7-2.1-.8 0-1.5.6-1.9 2.1h2.6z"/></g><g id="Auto_Parts"><path class="st0" d="M74.5 65.4h6c3.4 0 4 1.8 3.4 3.7-.6 1.8-2.4 3.9-6.1 3.9h-1.7l-1.4 4.2h-4.1l3.9-11.8zm3.3 5.2c1.2 0 1.8-.6 2.1-1.5.3-.9 0-1.4-1.2-1.4h-.9l-.9 2.9h.9zM37.9 65.4h3.9l1 11.8h-3.9v-1.9h-4.4l-1.3 1.9h-3.9l8.6-11.8zm.9 7.5l-.1-4-2.7 4h2.8zM88.7 77.3c-1.6.1-2.3-.1-2.6-.8-.9.6-1.6.9-2.6.9-1.8 0-2.2-1.1-1.8-2.2.2-.6.6-1.1 1.1-1.6 1.2-1 3.4-1.1 4.5-1.8.2-.8 0-1.3-.9-1.1-1.1.2-1.7.5-3.3 1.6l.9-2.7c1.5-.9 2.7-1.4 4.1-1.6 1.8-.1 3.3.9 2.6 3.2l-.8 2.6c-.3.9-.3 1.2.6 1.2l-1.8 2.3zm-2-3.9c-.8.5-1.8.4-2.1 1.4-.2.5 0 .8.4.8s.7-.2 1.2-.5c0-.2.1-.4.2-.7l.3-1zM51.7 73.8c-.3.8 0 1.2.9.9L51 77.2c-.5.1-.9.2-1.4.2-1.2 0-1.6-.4-1.5-1.6-1.1 1.1-2.1 1.6-3.2 1.6-1.3 0-2.5-.8-1.6-3.4l1.9-5.8h3.2L46.6 73c-.3 1-.2 1.4.5 1.4.5 0 .9-.3 1.5-.9l1.7-5.4h3.2l-1.8 5.7zM58.6 76.3c-1 .7-2 1-3.1 1-1 0-1.8-.3-2.2-1-.3-.5-.2-1.2.2-2.4l1.2-3.6h-1.4l.4-1.1 5.1-3.9h.7l-.9 2.7h2.5l-.7 2.3h-2.5l-1 2.7c-.3.8-.1 1.2.6 1.2.5 0 1.2-.2 2-.7l-.9 2.8zM66.3 67.9c3.4 0 3.9 2.5 3.2 4.7-.8 2.4-3 4.7-6.2 4.7-3.4 0-3.9-2.5-3.2-4.7.7-2.3 2.9-4.7 6.2-4.7zm-2.1 6.5c.9 0 1.8-.7 2.1-1.8.3-1-.1-1.8-1-1.8s-1.8.7-2.1 1.8c-.3 1 .1 1.8 1 1.8zM112.4 71c-.7-.6-1.3-.9-1.9-.9-.4 0-.8.3-.9.6-.3.9 1.3.7 2 1.9.3.5.4 1.2.1 1.9-.4 1.1-1.7 2.8-4 2.8-1.3 0-2.5-.3-3.1-.9l.8-2.6c.8.9 1.4 1.2 2.1 1.2.5 0 .9-.2 1.1-.7.4-1.1-3-1.1-2.1-3.8.4-1.2 1.6-2.7 4.1-2.7 1.1 0 1.8.2 2.6.7l-.8 2.5zM95.8 68.1l-.8 2.4c1.1-1.7 2.3-2.6 3.4-2.6.6 0 1.1.2 1.7.7l-2.6 3.6c-.3-.5-.7-.8-1.1-.8-.8 0-1.6.9-2.1 1.9l-1.2 3.8H90l2.9-9.1h2.9zM103 65.3l-3.5 5h.7L99 73.9c-.4 1.2-.4 1.9-.2 2.4.4.7 1.2 1 2.2 1 1.1 0 2-.3 3.1-1l.9-2.7c-.8.5-1.5.7-2 .7-.7 0-.8-.4-.6-1.2l.9-2.7h2.5l.7-2.3H104l.9-2.7-1.9-.1z"/></g><path id="bar" class="st0" d="M116.2 77.2l8.7-26.9h-3.8l-8.6 26.9z"/><g id="flag"><path class="st1" d="M123.2 62.1l-1.1 3.3-.5 1-1.7 5.4-.1 1-1.3 4.1s1.9.6 5 .9l1.4.4c1.5.1 2.9.1 4.3 0 .9-.1 1.9-.4 2.9-.7l1.6-.7c.7-.2 1.5-.3 2.2-.3 2.3.1 3.3.1 3.3.1l1.1-3.6.7-1.5 1.7-5.4.3-1.6.9-2.8.5-1 1.7-5.4v-.7l1.4-4.4s-1 0-3.3-.1c-.9 0-1.8.1-2.7.4l-1 .1c-1 .3-2 .6-2.9.7-1.5.1-2.8.1-4.4 0l-1.4.1c-3.2-.3-5.1-1-5.1-1l-1.4 4.3-.4.7-1.7 5.4v1.3z"/><path class="st2" d="M130 62.1c1.5.1 2.9.1 4.3 0 .9-.1 1.9-.4 2.9-.7L139 56c-1 .3-2.1.6-2.9.7-1.5.1-2.8.1-4.3 0l-1.8 5.4zM126.6 72.8c1.5.1 2.9.1 4.4 0 .9-.1 1.9-.4 2.9-.7l1.7-5.4c-1 .3-2 .6-2.9.7-1.5.1-2.8.1-4.3 0l-1.8 5.4zM140.7 50.7L139 56c1.3-.4 2.6-.7 3.9-.7 2.4.1 3.4.1 3.4.1L148 50s-1 0-3.4-.1c-1.2 0-2.6.4-3.9.8z"/><path class="st2" d="M119.9 71.8s1.9.6 5.3.9c.5 0 1 .1 1.4.1l-1.7 5.4c-.5 0-.9-.1-1.4-.1-3.3-.3-5.3-.9-5.3-.9l1.7-5.4zM131.8 56.7l1.7-5.3c-.4 0-.9-.1-1.4-.1-3.3-.3-5.3-1-5.3-1l-1.7 5.3s1.9.6 5.3.9c.4.1.9.2 1.4.2zM121.6 66.4l1.7-5.4s1.9.6 5.3.9c.5 0 1 .1 1.4.1l-1.7 5.4c-.5 0-.9-.1-1.4-.1-3.3-.3-5.3-.9-5.3-.9zM141.1 71.5s-1 0-3.4-.1c-1.3 0-2.6.3-3.9.7l-1.7 5.4c1.3-.4 2.6-.7 3.9-.7 2.4 0 3.4.1 3.4.1l1.7-5.4M135.6 66.7l1.7-5.4c1.3-.4 2.6-.7 3.9-.7 2.4.1 3.4.1 3.4.1l-1.7 5.4s-1 0-3.4-.1c-1.3 0-2.7.3-3.9.7z"/></g><path id="reg_trade_mark" class="st2" d="M148.9 50.9c0-.5.4-.9.8-.9.5 0 .8.4.8.9s-.4.9-.8.9-.8-.4-.8-.9zm.9 1.1c.6 0 1.1-.4 1.1-1s-.5-1-1.1-1c-.6 0-1.1.4-1.1 1 0 .5.5 1 1.1 1zm-.3-1h.2l.3.5h.2l-.3-.5c.2 0 .3-.1.3-.3 0-.2-.1-.3-.4-.3h-.5v1.2h.2V51zm0-.2v-.4h.2c.1 0 .3 0 .3.2s-.1.2-.3.2h-.2z"/><g id="tag"><path class="st2" d="M63 84.6c-.3-.4-.7-.5-1.2-.5-.4 0-.7.1-.7.4 0 .9 3.2.1 3.2 2.5 0 1-.8 2-2.5 2-1 0-2-.2-2.6-1.1l1-.8c.4.5.9.7 1.5.7.7 0 .9-.3.9-.5 0-.9-3.2-.2-3.2-2.4 0-1.1 1-1.9 2.4-1.9.8 0 1.7.2 2.2.9l-1 .7zM66.2 87.1c0 .6.4 1 1 1 .4 0 .8-.2.9-.6l1 .4c-.5.7-1.2 1.1-2.2 1.1-1.3 0-2.2-.8-2.2-2.2 0-1.3.9-2.2 2.2-2.2 1.2 0 2.2.7 2.2 2.3v.1h-2.9zm1.4-.8c0-.4-.2-.8-.6-.8-.5 0-.7.3-.7.8h1.3zM69.6 84.8h1.5v.6c.3-.5.9-.7 1.5-.8v1.5c-.4-.1-.7-.1-.9-.1-.3 0-.5.1-.7.3v2.6h-1.5v-4.1zM72.7 84.8h1.5L75 87l.8-2.2h1.1l-1.6 4.1h-1.1l-1.5-4.1zM77.3 83h1.5v1.2h-1.5V83zm0 1.8h1.5v4.1h-1.5v-4.1zM81.9 86.2c0-.3-.1-.6-.5-.6-.3 0-.6.3-.6 1.2 0 .9.2 1.2.8 1.2.5 0 .7-.3.8-.7l1 .2c-.4.9-1 1.5-2 1.5-1.2 0-2.1-.8-2.1-2.2 0-1.3.9-2.2 2.1-2.2 1 0 1.6.5 1.9 1.5l-1.4.1zM85 87.1c0 .6.4 1 1 1 .4 0 .8-.2.9-.6l1 .4c-.5.7-1.2 1.1-2.2 1.1-1.3 0-2.2-.8-2.2-2.2 0-1.3.9-2.2 2.2-2.2 1.2 0 2.2.7 2.2 2.3v.1H85zm1.4-.8c0-.4-.2-.8-.6-.8-.5 0-.7.3-.7.8h1.3zM90.4 83h1.5v1.2h-1.5V83zm0 1.8h1.5v4.1h-1.5v-4.1zM93.1 87.6c.3.4.7.6 1.2.6.4 0 .6-.1.6-.3 0-.1 0-.3-.8-.4-.8-.1-1.1-.2-1.4-.5-.2-.2-.3-.6-.3-.8 0-.8.7-1.5 1.8-1.5.7 0 1.5.2 1.8.8l-.9.5c-.1-.3-.6-.4-.9-.4-.3 0-.6.1-.6.3 0 .2.1.2.7.3 1.3.2 2 .6 2 1.4 0 .9-.6 1.5-2.1 1.5-.8 0-1.4-.2-1.9-.9l.8-.6zM100.8 89c-1.3 0-2.2-.8-2.2-2.2 0-1.3.9-2.2 2.2-2.2 1.3 0 2.2.8 2.2 2.2 0 1.3-.8 2.2-2.2 2.2zm.7-2.2c0-1-.3-1.2-.7-1.2-.4 0-.7.3-.7 1.2 0 1 .3 1.2.7 1.2.5 0 .7-.2.7-1.2zM107.5 88.9H106v-.6c-.4.4-.8.7-1.3.7-.4 0-1.2-.2-1.2-1.3v-3h1.5v2.6c0 .3.1.6.4.6.2 0 .4-.2.6-.4v-2.8h1.5v4.2zM108.2 84.8h1.5v.6c.3-.5.9-.7 1.5-.8v1.5c-.3-.1-.6-.2-.8-.2-.3 0-.5.1-.7.3v2.6h-1.5v-4zM113.7 83h1.5v2.3c.2-.4.6-.6 1.1-.6 1.1 0 1.6 1.1 1.6 2.1 0 1.4-.8 2.2-1.7 2.2-.6 0-1-.2-1.3-.7l-.3.6h-.9V83zm1.4 4.4c0 .5.2.7.6.7.5 0 .7-.4.7-1.3s-.2-1.3-.6-1.3c-.2 0-.4.1-.6.3v1.6zM119.7 87.1c0 .6.4 1 1 1 .4 0 .8-.2.9-.6l1 .4c-.5.7-1.2 1.1-2.2 1.1-1.3 0-2.2-.8-2.2-2.2 0-1.3.9-2.2 2.2-2.2 1.2 0 2.2.7 2.2 2.3v.1h-2.9zm1.3-.8c0-.4-.2-.8-.6-.8-.5 0-.7.3-.7.8h1.3zM123.7 87.6c.3.4.7.6 1.2.6.4 0 .6-.1.6-.3 0-.1 0-.3-.8-.4-.8-.1-1.1-.2-1.4-.5-.2-.2-.3-.6-.3-.8 0-.8.7-1.5 1.8-1.5.7 0 1.5.2 1.8.8l-.9.5c-.1-.3-.6-.4-.9-.4-.3 0-.6.1-.6.3 0 .2.1.2.7.3 1.3.2 2 .6 2 1.4 0 .9-.6 1.5-2.1 1.5-.8 0-1.4-.2-1.9-.9l.8-.6zM127.1 84.8h.7l.1-1.5h1.3v1.5h.7v.9h-.7v1.9c0 .2.2.3.4.3.1 0 .2 0 .3-.1v1c-.3 0-.6.1-.8.1-1.1 0-1.4-.4-1.4-1.1v-2.2h-.6v-.8zM132.4 84.8h1.4v.4c.4-.3.8-.5 1.2-.5 1.1 0 1.6 1.1 1.6 2.1 0 1.1-.5 2.2-1.7 2.2-.4 0-.8-.2-1.1-.5v1.7h-1.5v-5.4zm1.4 2.9c.2.2.3.3.6.3.5 0 .6-.6.6-1.3 0-.5 0-1.2-.7-1.2-.2 0-.5.2-.6.3v1.9zM137 85.8c.2-.9 1-1.1 1.8-1.1 1.5 0 1.8.6 1.8 1.2v2.2c0 .1 0 .6.2.8h-1.5c0-.1-.1-.2-.1-.4-.3.3-.8.5-1.3.5-.4 0-1.2-.2-1.2-1.2 0-1.1 1.3-1.5 2.5-1.5V86c0-.3-.2-.4-.5-.4-.4 0-.5.2-.6.5l-1.1-.3zm2.3 1.2c-.4.1-1 .2-1 .7 0 .3.3.4.5.4s.4-.1.6-.2V87zM141.3 84.8h1.5v.6c.3-.5.9-.7 1.5-.8v1.5c-.3-.1-.6-.2-.8-.2-.3 0-.5.1-.7.3v2.6h-1.5v-4zM144.5 84.8h.7l.1-1.5h1.3v1.5h.7v.9h-.7v1.9c0 .2.2.3.4.3.1 0 .2 0 .3-.1v1c-.3 0-.6.1-.8.1-1.1 0-1.4-.4-1.4-1.1v-2.2h-.6v-.8zM148 87.4h1.5v1.5H148v-1.5z"/></g><path id="reg_trade_mark_2_" class="st2" d="M148.4 83.9c0-.3.2-.5.5-.5s.5.2.5.5-.2.5-.5.5c-.2 0-.5-.2-.5-.5zm.5.6c.3 0 .6-.3.6-.6s-.3-.6-.6-.6-.6.3-.6.6.3.6.6.6zm-.1-.6h.1l.2.3h.1l-.2-.3c.1 0 .2-.1.2-.2s-.1-.2-.2-.2h-.3v.7h.1v-.3zm0 0v-.2h.1c.1 0 .1 0 .1.1s-.1.1-.2.1z"/></svg>