<?xml version="1.0" encoding="utf-8"?>
<!-- Generator: Adobe Illustrator 20.0.0, SVG Export Plug-In . SVG Version: 6.00 Build 0)  -->
<svg version="1.1" id="图层_1" xmlns="http://www.w3.org/2000/svg" xmlns:xlink="http://www.w3.org/1999/xlink" x="0px" y="0px"
	 viewBox="0 0 180 140" style="enable-background:new 0 0 180 140;" xml:space="preserve">
<style type="text/css">
	.st0{fill:#009BDF;}
</style>
<path class="st0" d="M90,103.5c-0.3,0-0.7,0-1,0l6.8-18.8h9.4c1.7,0,3.5-1.3,4-2.8l7.4-20.4c1.2-3.3-0.7-6.1-4.3-6.1H99.4l-11,30.1
	h0l-6.2,17.1C67.5,99.1,56.5,85.8,56.5,70c0-15.4,10.3-28.3,24.5-32.3l-6.4,17.6h0L63.9,84.7H71L80,59.8h5.3l-9.1,24.9l7.1,0
	l8.5-23.2c1.2-3.3-0.7-6.1-4.2-6.1h-6l6.9-18.8c0.5,0,1,0,1.5,0c18.5,0,33.5,15,33.5,33.5C123.5,88.5,108.5,103.5,90,103.5L90,103.5
	z M110.3,59.8h-5.3l-7.5,20.5h5.3L110.3,59.8L110.3,59.8z"/>
</svg>
