<?xml version="1.0" encoding="utf-8"?>
<!-- Generator: Adobe Illustrator 20.0.0, SVG Export Plug-In . SVG Version: 6.00 Build 0)  -->
<svg version="1.1" id="图层_1" xmlns="http://www.w3.org/2000/svg" xmlns:xlink="http://www.w3.org/1999/xlink" x="0px" y="0px"
	 viewBox="0 0 180 140" style="enable-background:new 0 0 180 140;" xml:space="preserve">
<style type="text/css">
	.st0{fill:#990000;}
</style>
<path class="st0" d="M110.4,74.5c-0.9,0-1.4,0.9-1.4,1.7c0,0.8,0.6,1.3,1.5,1.8c0.6,0.3,2.6,1.1,2.6,2.9c0,1.5-1.3,2.7-3.2,2.7
	c-1.3,0-2-0.5-2.1-0.6c-0.1-0.4-0.2-0.8-0.3-1.7l0.5,0c0.2,0.8,0.4,1.6,2,1.6c1.1,0,1.7-1,1.7-1.5c0-1-1-1.5-1.8-2
	c-0.8-0.6-2-1.1-2.1-3c0-1.6,1-2.5,2.7-2.5c1.5,0,1.9,0.6,1.9,0.6l0.2,1.3l-0.5,0.2C112,75.4,111.8,74.5,110.4,74.5L110.4,74.5z
	 M58.4,76.9v6.6h-0.6l-7-7.7v3.7c0,1.5,0,2.4,0.1,2.8c0.1,0.5,0.5,0.6,1.5,0.7v0.5h-3.6V83c0.9-0.1,1.1-0.2,1.2-0.7
	c0.1-0.5,0.2-1.3,0.2-2.8v-3c0-1.3-0.1-1.5-0.3-1.8c-0.3-0.3-0.3-0.4-1.1-0.4v-0.4h2.4l6.8,7.4v-3.7c0-3.3-0.1-3.4-1.6-3.4v-0.3h3.4
	v0.3C58.4,74.2,58.4,74.3,58.4,76.9L58.4,76.9z M104.6,83.5c-0.5,0-2.1,0-2.1,0c-0.8-0.4-1.5-1.7-2.9-4.1c-0.4-0.5-0.4-0.6-1.7-0.6
	v2.7c0,1.2-0.1,1.3,1.2,1.4v0.5h-3.7V83c1.3-0.1,1.2-0.2,1.2-1.4v-5.9c0-1.2,0.2-1.4-1.1-1.5v-0.4h3.6c2,0,3.5,0.5,3.5,2.4
	c0,1.3-0.9,2.1-2,2.5c0.7,1.1,2.8,4.5,4,4.2L104.6,83.5L104.6,83.5z M100.9,76.4c0-1.6-0.7-2.2-2.3-2.2c-0.4,0-0.4,0-0.6,0
	c-0.1,0-0.1,0-0.1,0.3v3.9h0.7C100,78.5,100.9,77.3,100.9,76.4L100.9,76.4z M44.4,75.2c-0.1,0.5,0,2,0,3.9c0,2.6-0.4,4.5-3.3,4.5
	c-3.6,0-3.8-2.4-3.8-4.1v-3.8c0-1.3,0-1.1-1.3-1.3v-0.5h3.8v0.5c-1.3,0-1.2,0.5-1.2,1.3v3.3c0,2.7,0.5,3.9,2.9,3.9
	c1.9,0,2.4-2.4,2.4-5.1c0,0,0-2.2-0.1-2.6c-0.1-0.5-0.3-0.7-1.4-0.8v-0.5h3v0.5C44.6,74.3,44.5,74.7,44.4,75.2L44.4,75.2z M67.6,83
	v0.5h-3.9V83c1.2,0,1.2-0.7,1.2-2v-5.1c0-1.2,0.3-1.5-1-1.5v-0.5h3.7v0.5c-1.3,0.1-1.3,0.3-1.3,1.5V81C66.3,82.2,66.4,83,67.6,83
	L67.6,83z M121,83v0.5h-3.9V83c1.2,0,1.2-0.7,1.2-2v-5.1c0-1.2,0.3-1.5-1-1.5v-0.5h3.7v0.5c-1.3,0.1-1.3,0.3-1.3,1.5V81
	C119.6,82.2,119.7,83,121,83L121,83z M79.4,76.2c-0.9,2.2-2.2,5.3-3,7.3h-0.7c-1-2.7-2.1-5.2-3.2-7.9c-0.4-1.1-0.4-1.3-1.3-1.4v-0.4
	h3.3v0.4c-0.8,0.1-0.7,0.1-0.7,0.5c0,0.1,0,0.3,0.1,0.5c0.3,0.9,1.2,3,2.4,6.1c0,0,2.4-5.8,2.4-6.6c0-0.3-0.1-0.5-0.9-0.6v-0.4h3.1
	v0.4C80.1,74.3,79.9,74.9,79.4,76.2L79.4,76.2z M88.4,83.1c0.9,0,1.6,0,2.1-0.6c0.2-0.3,0.4-0.5,0.6-1.2h0.5
	c-0.1,0.6-0.3,1.7-0.4,2.2h-7.2L83.8,83c1.4-0.1,1.3-0.3,1.3-1.5V76c0-1.3,0.1-1.6-1.1-1.6v-0.5h6.7v2.1L90,75.7
	c-0.3-1.1-0.1-1.2-2-1.2h-1.1c-0.4,0-0.4,0-0.4,0.4v3.3H88c1.2,0,1.2-0.2,1.4-1.2h0.3v3.2h-0.3C89.1,79.1,89.1,79,88,79h-1.5v2.6
	C86.5,83.1,87.1,83.1,88.4,83.1L88.4,83.1z M143.7,75.4l-2.6,3.2c0,0,0.1,2.4,0.1,3.1s0.5,1.3,1.3,1.3v0.4h-3.9v-0.4
	c1.3,0,1.3-0.9,1.3-1.5l-0.1-2.9l-2.5-3.1c-0.5-0.9-1.2-1.1-1.8-1.1v-0.6h3.3v0.6c-0.4,0.1-0.4,0.6-0.1,1c1.2,1.3,2,2.4,2,2.4
	c0,0,2.3-2.5,2.3-3c0-0.3,0-0.4-0.9-0.5v-0.5h3.1v0.6C144.4,74.6,144.4,74.7,143.7,75.4L143.7,75.4z M31.9,57.4
	c-1.2,0-1.9,1.3-1.9,2.3c0,1.1,0.8,1.8,2.1,2.4c0.9,0.4,3.5,1.5,3.5,3.9c0,2-1.8,3.6-4.3,3.6c-1.7,0-2.8-0.7-2.9-0.8
	c-0.2-0.5-0.3-1.2-0.4-2.3l0.7,0c0.3,1.1,0.5,2.2,2.8,2.2c1.5,0,2.3-1.3,2.3-2c0-1.3-1.4-2-2.5-2.8c-1.1-0.8-2.7-1.5-2.8-4.1
	c0-2.1,1.3-3.4,3.7-3.4c2.1,0,2.6,0.8,2.6,0.8l0.2,1.8l-0.7,0.2C34.1,58.7,33.9,57.4,31.9,57.4L31.9,57.4z M61.9,69.7v-0.6
	c1.1-0.2,1.5-0.3,1.5-0.7c0-0.5-0.5-1.7-1.3-3.5H58c-0.2,0.4-0.9,2.6-0.9,3.3c0,0.7,0.5,0.8,1.7,1v0.6h-4.3v-0.6
	c1.4-0.3,1.1-0.5,1.9-2.2l3.8-10.3l0.6-0.1c0,0,3.2,8.9,4,10.8c0.5,1.1,0.7,1.7,1.8,1.9v0.6H61.9L61.9,69.7z M60,59
	c0,0-1.2,3.4-1.8,5.1h3.7L60,59L60,59z M84.6,60.8v8.9h-0.9l-9.6-10.5v5c0,2.1,0,3.2,0.2,3.8c0.2,0.6,0.6,0.9,2,1v0.7h-4.9V69
	c1.2-0.1,1.5-0.3,1.6-0.9c0.2-0.6,0.2-1.8,0.2-3.8v-4.1c0-1.8-0.1-2-0.5-2.5c-0.4-0.4-0.5-0.5-1.6-0.6v-0.5h3.2l9.2,10v-5
	c0-4.4-0.1-4.6-2.2-4.6v-0.4H86V57C84.6,57,84.6,57.2,84.6,60.8L84.6,60.8z M100,59.2c-0.3-1.6-0.3-2.1-2.7-2.1h-1.9
	c-0.5,0-0.6,0-0.6,0.6v4.9h1.7c1.9,0,2.1-0.4,2.5-1.8h0.4v4.1h-0.4c-0.4-1.6-0.3-1.7-2.5-1.7h-1.7v4c0,1.5,0.5,1.9,1.8,1.9v0.6h-5.3
	v-0.6c1.7-0.1,1.6-0.4,1.6-1.9v-8.5c0-1.5,0.3-1.9-1.4-1.9v-0.3h9.2c0,1.1,0,2.7,0,2.7H100L100,59.2z M111.5,69.7
	c-3.6,0-6.5-2.7-6.5-6.4c0-3.4,2.6-6.8,7-6.8c3.3,0,6.4,2.5,6.4,6.4C118.4,66.9,115.3,69.7,111.5,69.7L111.5,69.7z M111.3,57
	c-2.2,0-4.2,1.8-4.2,5.7c0,3.9,2,6.5,4.7,6.5c2.2,0,4.3-1.9,4.3-5.5C116.1,59.2,114,57,111.3,57L111.3,57z M135.2,69.7
	c-0.7,0-2.8,0-2.8,0c-1.1-0.5-2-2.4-4-5.5c-0.5-0.7-0.5-0.8-2.3-0.8v3.7c0,1.6-0.1,1.8,1.6,1.9v0.7h-5.1V69c1.8-0.1,1.6-0.3,1.6-1.9
	V59c0-1.6,0.3-1.9-1.5-2v-0.5h4.9c2.7,0,4.8,0.6,4.8,3.3c0,1.8-1.2,2.8-2.7,3.4c0.9,1.5,3.8,6.1,5.5,5.7L135.2,69.7L135.2,69.7z
	 M130.2,60.1c0-2.2-1-2.9-3.1-2.9c-0.6,0-0.6,0-0.8,0c-0.1,0-0.2,0.1-0.2,0.5v5.3h1C129,62.9,130.2,61.2,130.2,60.1L130.2,60.1z
	 M143.4,69.7h-4.2v-0.8c1.5,0,1.7-0.2,1.7-1.9v-7.7c0-1.6,0-2.4-1.7-2.5v-0.4h5.7c2.5,0,7.1,0.8,7.1,6.5
	C152,67.9,148.4,69.7,143.4,69.7L143.4,69.7z M144.7,57.1c-1.1,0-1.6,0-1.8,0c-0.1,0-0.2,0-0.2,0.4V67c0,1.6,0.3,1.7,2.4,1.7
	c2.8,0,4.8-3.1,4.8-5.8C149.9,59.6,147.6,57.1,144.7,57.1L144.7,57.1z M50.6,59.4c-0.3-1.4-0.9-1.6-3.5-1.6h-1v8.8
	c0,1.5-0.1,2.2,1.8,2.3v0.8h-5.3v-0.8c2-0.1,1.8-0.7,1.8-2.3v-8.8h-1c-2.6,0-3.1,0.1-3.5,1.6h-0.4v-2.9h0.6c0.1,0.2,0.3,0.4,0.4,0.4
	C41,57,41.2,57,41.5,57h7.8c0.3,0,0.5,0,0.6-0.1c0.2-0.1,0.3-0.2,0.4-0.4H51v2.9H50.6L50.6,59.4z M132.7,76c-0.3-1-0.6-1.1-2.5-1.1
	h-0.7v6.5c0,1.1-0.1,1.6,1.4,1.7v0.6h-3.9v-0.6c1.5-0.1,1.4-0.5,1.4-1.7v-6.5h-0.7c-1.9,0-2.3,0.1-2.5,1.1h-0.3v-2.1h0.4
	c0.1,0.2,0.2,0.3,0.3,0.3c0.1,0,0.3,0,0.5,0h5.7c0.2,0,0.4,0,0.5,0c0.1,0,0.2-0.1,0.3-0.3h0.4V76H132.7L132.7,76z"/>
</svg>
