<?xml version="1.0" encoding="utf-8"?>
<!-- Generator: Adobe Illustrator 20.0.0, SVG Export Plug-In . SVG Version: 6.00 Build 0)  -->
<svg version="1.1" id="图层_1" xmlns="http://www.w3.org/2000/svg" xmlns:xlink="http://www.w3.org/1999/xlink" x="0px" y="0px"
	 viewBox="0 0 180 140" style="enable-background:new 0 0 180 140;" xml:space="preserve">
<style type="text/css">
	.st0{fill-rule:evenodd;clip-rule:evenodd;fill:#231815;}
	.st1{fill-rule:evenodd;clip-rule:evenodd;fill:#F9BC00;}
</style>
<g>
	<path class="st0" d="M124,64c-3.4,0-5.9,2.4-5.9,6.1c0,3.6,2.5,6.1,5.9,6.1c3.5,0,5.7-2.4,5.7-6.1C129.7,66.4,127.5,64,124,64
		L124,64L124,64L124,64L124,64L124,64z M125.9,73c0,1.1-0.9,1.9-1.9,1.9c-1,0-1.9-0.8-1.9-1.9l0,0v-6.1l0,0c0-1,0.8-1.9,1.9-1.9
		c1,0,1.9,0.8,1.9,1.9l0,0V73L125.9,73L125.9,73z"/>
	<path class="st0" d="M111.5,64.2c-0.8,0-2,0.2-2.6,1l0,0v-1.1l0,0c-1.5,0.3-1.8,0.4-5.3,0.4l0,0v1.2l0,0c1.2,0,1.9,0.1,1.9,1.4l0,0
		v11.4l0,0c0,1.5,0.2,2.5-1.9,2.5l0,0v1.3h7.6v-1.3h-0.2l0,0c-1.5,0-2-0.8-2-1.6l0,0v-4.2l0,0c0.7,0.9,1.6,1.1,2.5,1.1
		c3.3,0,5-2.2,5-6.1C116.4,66.5,114.9,64.2,111.5,64.2L111.5,64.2L111.5,64.2L111.5,64.2L111.5,64.2L111.5,64.2z M112.3,73.3
		c0,0.9-0.7,1.6-1.6,1.6c-0.9,0-1.6-0.7-1.6-1.6l0,0v-6.1l0,0c0-0.9,0.7-1.6,1.6-1.6c0.9,0,1.6,0.7,1.6,1.6l0,0V73.3L112.3,73.3
		L112.3,73.3z"/>
	<path class="st1" d="M85.7,68.9c-0.6,0.6-1.3,1.3-1.9,1.9l0,0v-2.3l0,0c0.6-0.6,1.1-1.1,1.6-1.6c0.1,0.2,0.2,0.2,0.2,0.7l0,0V68.9
		L85.7,68.9L85.7,68.9z"/>
	<path class="st1" d="M95.1,60.2c-1.3,1-2.4,2.1-3.6,3.2l0,0v-1l0,0c-0.4,0.3-1.6,0.6-2.1,0.6c1.6-1.6,3.2-3.1,4.8-4.5l0,0v1.6
		L95.1,60.2L95.1,60.2L95.1,60.2z"/>
	<path class="st1" d="M99.5,56.4c7.6-6.1,15.8-11.6,24.3-15.3c5.7-2.3,9-3.3,11.4-0.7c2.3,2.5-2.7,10.8-3.8,11.9
		c-1.3-0.4-1.8,0.2-1.8,0.2c0.5-0.2,1.3,0.2,0.8,1.5c-0.2,0.5-1.2,1.2-1.6,0c-0.5,1.2-1.7,3.3-3.1,5.2c-4.8,6.5-11.4,12.8-21,21.3
		c-15.8,14-23.9,17.2-29.4,19.5c-4,1.5-14,3.7-7.4-8.5c1.4-3.1,5-8.4,10.3-14.4l0,0h-1.6v-0.6l0,0c-3.9,4.5-7.7,9.5-10.2,14.4
		c-2,3.6-5.9,14.9,8.6,10.5c4.8-1.5,17.6-7.7,31.6-20.3c14.9-13.3,22.4-22.8,25-25.9c0.5-0.6,1-1.6,0.6-2.3
		c2.5-3.8,6.1-11.7,3.5-14.1c-2.8-2.7-8.4-0.9-10.5-0.1c-3.4,1.3-16.2,7.5-28.5,17.6l0,0H99.5L99.5,56.4L99.5,56.4z"/>
	<path class="st0" d="M73.8,49.5c-0.1,0.5-0.4,1.3-2.4,2.5c-4.9,2.9-13.1,3.1-19.5,3c-9.8-0.2-13.9-2.5-14.9-3.4
		c-0.6-0.5-0.5-1,0.2-1.5c1.8-1.4,8.2-1.9,12.5-1.9c4.2,0,9.1,1,9,2.1c0,1.2-2.3,1.3-2.9,1.4c-0.4,0-0.8-0.1-0.8-0.3
		c0.1-0.3,0.6-0.3,0.9-0.4c0.2,0,0.4-0.2,0.4-0.5c0-0.4-1-0.7-1.9-0.8c-2.5-0.6-5.7-0.4-7.4-0.3c-3,0.2-5.1,1.1-5.1,1.9
		c0,0.7,1.8,2.7,10.6,3c11.4,0.4,16.7-1.6,19.3-3.4c1.8-1.4,0.4-2.3-1.3-3.1c-4.6-2.2-13.4-2.4-17.8-2.4c-5-0.1-13.2,0.5-16.7,1.2
		c-0.8,0.2-0.6,0.8,0.5,0.6c1.3-0.2,10.3-0.8,14.7-0.6c4.4,0.2,9.8,0.1,14.7,2.5c0.8,0.5,1.1,1.5-0.2,2.2c-1.3,0.7-4.5,2.3-12,2.3
		c-6.9,0.1-7.8-1.1-8.4-1.6c-0.2-0.2-0.3-0.8,0.6-1.3c0.8-0.4,1.5-0.4,2.1-0.4c0.6,0,0.8,0.6,0.2,0.6C47.7,50.9,47,51,47,51.4
		c0,0.4,0.4,0.4,0.8,0.6c0.4,0.2,2.5,0.6,5.2,0.6c4,0,7-0.6,8.8-1.6c0.7-0.4,0.9-1.5-0.3-1.9c-1.9-0.6-5.4-1.8-12.6-1.8
		c-5,0-14.2,0.8-16.9,1.5c-0.9,0.3-3.1,0.9-3.1,2c0,1.1,1.5,1.7,2.1,1.9c3.9,1.4,15,3,19.3,3.1c12.1,0.1,19-0.9,23.2-4.5
		c0.3-0.4,0.9-1,1-1.6C74.7,48.9,74,48.8,73.8,49.5L73.8,49.5L73.8,49.5L73.8,49.5z"/>
	<path class="st0" d="M62.2,57.8c3,0,3.8-0.1,5.1-0.4l0,0v8.5l0,0c1.1-1.8,2.5-1.8,4.1-1.8c1.4,0,3.1,1.3,3.1,4l0,0v3.6l0,0
		c0,2.3,0.1,3.1,1.6,3.1l0,0h0v1h-6.3v-1l0,0c1.1,0,1.2-1.3,1.2-2.3l0,0l0-0.8v-3.4l0,0c0-1.5-0.5-2.3-1.4-2.3
		c-1.9,0-2.4,1.5-2.4,3.6l0,0V72l0,0c0.1,1.7,0,2.8,1.4,2.8l0,0v1h-6.6v-1l0,0l0,0c1.4,0,1.8-0.8,1.8-2.4l0,0v-12l0,0
		c0-1.2,0-1.5-0.8-1.3c-1.1,0.3-1.4,0.9-1.9,2.4l0,0l-4.7,14.9h-1l-3.6-10.1l-3.7,10.1h-1l-6.6-15.9l0,0c-0.4-1.3-1.4-1.4-2.7-1.5
		l0,0v-1.2h8.3v1.2h-0.3l0,0c-0.9,0-0.8,0.3-0.8,0.8c0,0.3,0,0.6,0.3,1.5l0,0l3.6,9.7l2.4-6.8l-1-2.5l0,0c-0.6-1.9-0.8-2.7-2.6-2.7
		l0,0v-1.2H55v1.2l-0.4,0l0,0c-0.6,0.1-0.7,0.4-0.7,0.9c0,0.3,0,0.4,0.3,1.2l0,0l2.8,9.2l3.1-10l0,0c0.2-1-0.8-1.3-1.3-1.4l0,0v-1.1
		H62.2L62.2,57.8L62.2,57.8z"/>
	<path class="st0" d="M82.8,60.7c0,1-0.9,1.9-2,1.9c-1,0-1.9-0.9-1.9-1.9c0-1.1,0.9-1.9,1.9-1.9C81.9,58.7,82.8,59.6,82.8,60.7
		L82.8,60.7L82.8,60.7L82.8,60.7z"/>
	<path class="st0" d="M77.6,75.8h6.7v-1v-0.1l0,0c-1.5,0-1.6-0.7-1.6-3l0,0v-7.7l0,0c-1.1,0.4-2.5,0.4-5.4,0.4l0,0v1.2h0.5l0,0
		c1.3,0,1.5,1.4,1.5,1.4l0,0v4.7l0,0c0,2.3-0.2,3-1.7,3l0,0V75.8L77.6,75.8L77.6,75.8z"/>
	<path class="st0" d="M90.6,65.1c1.1-1.3,2.9-0.9,3.1-0.9c1.2,0,1.8,1.3,1.8,2.1c0,1.2-0.8,2.1-1.8,2.1c-1,0-1.8-0.6-1.8-1.7
		c0-0.3,0-0.5,0.2-0.7c0.1-0.1,0.1-0.2,0.1-0.2c0,0,0-0.3,0-0.3c-0.2,0-0.4-0.2-0.8,0.3c-0.6,0.8-0.7,1.4-0.7,2.4l0,0v4.8l0,0
		c0.1,0.5,0.2,1.1,0.7,1.5c0.3,0.2,0.3,0.2,0.9,0.2l0,0l0,0v1h-6.7v-1.1l0,0l0,0c1.5,0,1.6-0.7,1.6-2.9l0,0v-4.8l0,0
		c0-1.5-0.7-1.4-1.9-1.4l0,0v-1.1l0,0c2.8,0,4,0,5.4-0.3l0,0V65.1L90.6,65.1L90.6,65.1z"/>
	<path class="st0" d="M149.1,71.9c0,2.3,0.5,2.6,1.9,2.8l0,0l0,0v1h-7.3v-1l0,0l0,0c1.5-0.2,1.9-0.5,1.9-2.8l0,0V60.6l0,0
		c0-1.1-0.7-1.7-1.5-1.7l0,0l-0.4,0v-1.2l0,0c2.9,0,4,0,5.4-0.3l0,0V71.9L149.1,71.9L149.1,71.9z"/>
	<path class="st0" d="M137.3,64c-3.4,0-5.9,2.4-5.9,6.1c0,3.6,2.4,6.1,5.9,6.1c3.5,0,5.8-2.4,5.8-6.1C143,66.4,140.7,64,137.3,64
		L137.3,64L137.3,64L137.3,64L137.3,64L137.3,64z M139.2,73c0,1.1-0.8,1.9-1.9,1.9c-1,0-1.9-0.8-1.9-1.9l0,0v-6.1l0,0
		c0-1,0.9-1.9,1.9-1.9c1,0,1.9,0.8,1.9,1.9l0,0V73L139.2,73L139.2,73z"/>
	<path class="st0" d="M101,71.9c0,2.3,0.5,2.6,1.9,2.8l0,0l0,0v1h-7.3v-1l0,0l0,0c1.5-0.2,2-0.5,2-2.8l0,0V60.6l0,0
		c0-1.1-0.7-1.7-1.6-1.7l0,0l-0.4,0v-1.2l0,0c2.9,0,4,0,5.4-0.3l0,0V71.9L101,71.9L101,71.9z"/>
</g>
</svg>
