<?xml version="1.0" encoding="utf-8"?>
<!-- Generator: Adobe Illustrator 20.0.0, SVG Export Plug-In . SVG Version: 6.00 Build 0)  -->
<svg version="1.1" id="图层_1" xmlns="http://www.w3.org/2000/svg" xmlns:xlink="http://www.w3.org/1999/xlink" x="0px" y="0px"
	 viewBox="0 0 180 140" style="enable-background:new 0 0 180 140;" xml:space="preserve">
<style type="text/css">
	.st0{fill:#8EC31F;}
	.st1{fill:#003280;}
</style>
<path class="st0" d="M120.5,91.5c-2.9,0-5.5-1.1-7.5-3.1c-1.9-1.9-3-4.4-3-7.2V48.5h41v43H120.5L120.5,91.5z"/>
<path class="st1" d="M120.5,70.8c-5.8,0-10.5,4.6-10.5,10.4c0,5.7,4.7,10.3,10.5,10.3c5.8,0,10.5-4.6,10.5-10.3
	C131.1,75.4,126.3,70.8,120.5,70.8z M120.5,86.1c-2.6,0-4.7-2.2-4.7-5c0-2.8,2.1-5,4.7-5c2.6,0,4.7,2.2,4.7,5
	C125.3,83.9,123.1,86.1,120.5,86.1z"/>
<path class="st1" d="M29,91.2V71.1h5.6c0,0,0,13.3,0,14.8c1.3,0,7.9,0,7.9,0v5.3H29L29,91.2z"/>
<path class="st1" d="M60.4,85.9v5.2H45.5V71.1h14.8v5.2c0,0-7.8,0-9.2,0c0,0.7,0,1.9,0,2.6c1.3,0,6.7,0,6.7,0v4.2c0,0-5.4,0-6.7,0
	c0,0.7,0,2,0,2.8C52.5,85.9,60.4,85.9,60.4,85.9L60.4,85.9z"/>
<path class="st1" d="M75,91.3h-4.6l-8-20.2h6.2c0,0,3.2,8.6,4.2,11.5c1.1-2.9,4.2-11.5,4.2-11.5h6.1L75,91.3L75,91.3z"/>
<polygon class="st1" points="85.4,91.2 85.4,71.1 91,71.1 91,91.2 85.4,91.2 "/>
<path class="st1" d="M105.1,76.5c0,1.4,0,14.7,0,14.7h-5.6c0,0,0-13.3,0-14.7c-1.2,0-4.9,0-4.9,0v-5.4H110v5.4
	C110,76.5,106.2,76.5,105.1,76.5L105.1,76.5z"/>
<path class="st1" d="M146.4,91.5c0,0-5.6-7.8-7.7-10.5c0,3,0,10.5,0,10.5h-5.6V71.1h4.9c0,0,5.4,7.4,7.4,10.1c0-3,0-10.1,0-10.1h5.6
	v20.4H146.4L146.4,91.5z"/>
</svg>
