<?xml version="1.0" encoding="utf-8"?>
<!-- Generator: Adobe Illustrator 22.1.0, SVG Export Plug-In . SVG Version: 6.00 Build 0)  -->
<svg version="1.1" id="图层_1" xmlns="http://www.w3.org/2000/svg" xmlns:xlink="http://www.w3.org/1999/xlink" x="0px" y="0px"
	 viewBox="0 0 430 267" style="enable-background:new 0 0 430 267;" xml:space="preserve">
<style type="text/css">
	.st0{fill:#329ED8;}
	.st1{fill:#434343;}
</style>
<g id="Group_617" transform="translate(-8.1 -45.6)">
	<g id="Group_359" transform="translate(8.1 45.6)">
		<path class="st0" d="M306.5,9.7V0c-73.4-0.2-133,59.2-133.3,132.7c0,0.3,0,0.5,0,0.8h83.6c0.1-27.4,22.3-49.6,49.7-49.8V74
			c32.8,0.6,58.9,27.6,58.4,60.5c-0.5,32.1-26.4,57.9-58.4,58.5c-17.2-0.2-33.5-7.7-44.8-20.6c-6.1,21.5-16.8,41.4-31.5,58.2
			c21.6,17.5,48.6,27,76.3,26.7c68.2,0,123.5-55.4,123.5-123.8S374.7,9.7,306.5,9.7z"/>
		<path class="st1" d="M173.2,133.5c-0.1,27.4-22.3,49.6-49.7,49.8v9.7c-32.8-0.6-58.9-27.6-58.4-60.5c0.5-32.1,26.4-57.9,58.4-58.5
			c17.2,0.2,33.5,7.7,44.8,20.6c6.1-21.5,16.8-41.4,31.5-58.2c-21.6-17.5-48.6-27-76.3-26.7C55.3,9.7,0,65.2,0,133.5
			c0,68.4,55.3,123.8,123.5,123.8v9.7c73.4,0.2,133-59.2,133.3-132.7c0-0.3,0-0.5,0-0.8H173.2z"/>
	</g>
</g>
</svg>
