<?xml version="1.0" encoding="utf-8"?>
<!-- Generator: Adobe Illustrator 22.1.0, SVG Export Plug-In . SVG Version: 6.00 Build 0)  -->
<svg version="1.1" id="Isolation_Mode" xmlns="http://www.w3.org/2000/svg" xmlns:xlink="http://www.w3.org/1999/xlink" x="0px"
	 y="0px" viewBox="0 0 85 85" style="enable-background:new 0 0 85 85;" xml:space="preserve">
<style type="text/css">
	.st0{fill:#FFFFFF;}
	.st1{fill:#606C78;}
</style>
<g>
	<circle class="st0" cx="43.2" cy="44.5" r="24.2"/>
	<path class="st1" d="M18.9,29.5l-1.6-1.2c-3.7,4.7-5.8,10.8-5.8,17c0,6.2,2,12.3,5.7,17l1.6-1.2c-3.4-4.3-5.3-9.9-5.3-15.7
		C13.5,39.4,15.4,33.8,18.9,29.5z M20.7,35.8c-2,2.6-3.1,6-3.1,9.4c0,3.5,1.1,6.8,3.1,9.4l1.6-1.2c-1.7-2.3-2.7-5.2-2.7-8.2
		c0-3,0.9-5.9,2.7-8.2L20.7,35.8z M66.1,35.8L64.5,37c1.7,2.3,2.7,5.2,2.7,8.2s-0.9,5.9-2.7,8.2l1.6,1.2c2-2.6,3.1-6,3.1-9.4
		S68.1,38.5,66.1,35.8z M69.4,28.2l-1.6,1.2c3.5,4.4,5.4,10,5.4,15.8c0,5.8-1.9,11.4-5.3,15.7l1.6,1.2c3.7-4.7,5.7-10.7,5.7-17
		C75.2,39,73.2,32.9,69.4,28.2z M36.7,30.9c-1,1.4-1.9,3.7-1.7,5.3l2-0.3c-0.1-0.8,0.3-2.4,1.3-3.8c1-1.3,2.4-2.3,3.2-2.4l-0.3-2
		C39.6,28,37.7,29.5,36.7,30.9z M59.1,44.5c-1.2-1.3-3.5-3.7-3.9-8.9c-0.5-5.4-4.1-9.7-8.9-11.1c0.4-0.6,0.7-1.4,0.7-2.2
		c0-2.1-1.7-3.8-3.8-3.8s-3.8,1.7-3.8,3.8c0,0.8,0.3,1.6,0.7,2.2c-4.8,1.3-8.4,5.6-8.9,11.1c-0.5,5.3-2.7,7.6-3.9,8.9l-0.3,0.3
		c-1.2,1.9-1.4,4.9-1.4,5.9v0.6l0.6,0.3c2.6,1.3,5.8,2.1,9.8,2.6c0.4,3.1,3.5,5.5,7.2,5.5c3.7,0,6.8-2.4,7.2-5.5
		c4-0.4,7.2-1.3,9.8-2.6l0.6-0.3v-0.6c0-1-0.3-3.9-1.4-5.9L59.1,44.5z M43.3,20.6c1,0,1.8,0.8,1.8,1.8s-0.8,1.8-1.8,1.8
		c-1,0-1.8-0.8-1.8-1.8S42.3,20.6,43.3,20.6z M43.2,57.7c-2.5,0-4.6-1.4-5.1-3.3c1.7,0.1,3.5,0.2,5.4,0.2c0.9,0,1.7,0,2.5,0
		c0.8,0,1.6-0.1,2.3-0.1C47.9,56.3,45.8,57.7,43.2,57.7z M49.2,52.3c-0.6,0.1-1.2,0.1-1.9,0.1c-0.3,0-0.7,0-1,0c-0.3,0-0.5,0-0.8,0
		c-0.7,0-1.3,0-2.1,0c-0.7,0-1.4,0-2.1,0c-0.4,0-0.7,0-1.1,0c-0.1,0-0.3,0-0.4,0c-1,0-1.9-0.1-2.8-0.2l-0.1,0
		c-3.8-0.4-6.9-1.1-9.3-2.2c0.1-1.1,0.4-3,1.1-4.1l0.1-0.1c1.3-1.4,4-4.2,4.5-10.1c0.5-5.5,4.8-9.7,9.9-9.7c5.2,0,9.4,4.2,9.9,9.7
		c0.5,6,3.2,8.8,4.5,10.1l0.1,0.1c0.7,1.2,1,3,1.1,4.1C56.3,51.3,53.2,52,49.2,52.3z"/>
</g>
</svg>
